<?xml version="1.0" standalone="no"?>
<!DOCTYPE svg PUBLIC "-//W3C//DTD SVG 20010904//EN"
 "http://www.w3.org/TR/2001/REC-SVG-20010904/DTD/svg10.dtd">
<svg version="1.0" xmlns="http://www.w3.org/2000/svg"
 width="700.000000pt" height="700.000000pt" viewBox="0 0 700.000000 700.000000"
 preserveAspectRatio="xMidYMid meet">
<metadata>
Created by potrace 1.11, written by Peter Selinger 2001-2013
</metadata>
<g transform="translate(0.000000,700.000000) scale(0.100000,-0.100000)"
fill="#000000" stroke="none">
<path d="M3268 6996 c-1 -2 -34 -6 -73 -10 -357 -32 -736 -146 -1072 -322
-629 -330 -1121 -881 -1370 -1534 -40 -107 -90 -267 -109 -350 -4 -19 -8 -37
-9 -40 -17 -73 -34 -162 -41 -225 -3 -27 -7 -61 -10 -75 -21 -132 -21 -516 0
-640 3 -14 7 -47 11 -75 3 -27 15 -95 26 -150 12 -55 22 -108 24 -117 15 -71
101 -344 115 -363 4 -5 13 -28 20 -50 33 -103 188 -388 296 -545 90 -132 309
-400 429 -526 11 -12 76 -81 145 -154 358 -381 851 -871 1419 -1410 90 -85
178 -168 195 -185 108 -102 234 -215 241 -215 4 0 20 12 35 28 15 15 98 95
185 177 87 83 179 170 204 194 519 493 1187 1161 1486 1485 61 66 117 127 125
135 8 9 48 54 89 101 41 47 77 87 80 90 21 17 170 213 233 305 220 321 361
650 438 1020 11 55 23 118 25 140 3 22 10 80 16 129 13 103 17 411 7 536 -6
73 -21 186 -34 255 -2 11 -6 36 -9 55 -20 116 -101 394 -140 485 -7 17 -25 59
-40 95 -156 373 -426 742 -760 1039 -272 242 -675 468 -1040 584 -76 24 -187
55 -230 63 -11 2 -31 6 -45 9 -66 15 -254 45 -330 54 -77 8 -523 14 -532 7z
m457 -1297 c730 -102 1301 -685 1372 -1404 12 -124 6 -359 -11 -452 -3 -11 -7
-38 -10 -59 -39 -242 -173 -527 -358 -760 -91 -115 -299 -356 -367 -425 -9 -9
-61 -65 -116 -125 -144 -155 -587 -606 -731 -743 -2 -3 -30 23 -62 56 -31 34
-122 130 -202 214 -223 236 -295 311 -325 344 -15 17 -68 75 -119 130 -51 55
-128 141 -172 190 -43 50 -81 92 -84 95 -58 53 -334 399 -394 494 -100 157
-175 348 -217 546 -30 147 -35 439 -8 590 48 277 167 537 342 745 65 78 178
187 247 239 30 22 57 43 60 47 3 3 47 30 97 61 314 189 696 268 1058 217z"/>
<path d="M3440 4979 c-41 -3 -91 -10 -110 -14 -19 -5 -40 -10 -47 -11 -69 -13
-190 -70 -278 -132 -186 -131 -318 -346 -353 -572 -12 -82 -6 -252 12 -325 43
-170 159 -350 297 -459 159 -126 322 -185 522 -191 377 -10 719 229 835 585
30 93 33 112 37 235 4 132 -6 202 -45 313 -87 255 -306 465 -562 539 -83 24
-226 39 -308 32z"/>
</g>
</svg>
